# xmcd
#
# Track frame offsets: 
#        150
#        14327
#        25675
#        40290
#        53227
#        69472
#        86115
#        101727
#        117155
#        132890
#        153950
#        173312
#        190967
#        207410
#
# Disc length: 3051 seconds
#
# Revision: 14
# Processed by: cddbd v1.5.2PL0 Copyright (c) Steve Scherf et al.
# Submitted via: ExactAudioCopyFreeDBPlugin 1.0
#
DISCID=b50be90e
DTITLE=THE RATS and STAR - 14 CARATS
DYEAR=1984
DGENRE=Pop
TTITLE0=ランナウェイ
TTITLE1=トゥナイト
TTITLE2=街角トワイライト
TTITLE3=ハリケーン
TTITLE4=涙のスウィート・チェリー
TTITLE5=ラブ・ミー・ドゥ
TTITLE6=憧れのスレンダー・ガール
TTITLE7=サマー・ホリデー
TTITLE8=め組のひと
TTITLE9=Tシャツに口紅
TTITLE10=今夜はフィジカル
TTITLE11=月下美人（ムーンライト・ハニー）
TTITLE12=楽しき街角
TTITLE13=ストレイ・ボーイ
EXTD=YEAR: 1995
EXTT0=
EXTT1=
EXTT2=
EXTT3=
EXTT4=
EXTT5=
EXTT6=
EXTT7=
EXTT8=
EXTT9=
EXTT10=
EXTT11=
EXTT12=
EXTT13=
PLAYORDER=
